# xmcd
#
# Track frame offsets:
#	182
#	11225
#	23270
#	35935
#	50277
#	63832
#	79382
#	92535
#	108372
#	122215
#	133460
#	147045
#	158380
#	170962
#	188385
#	202295
#	214125
#	229995
#	242945
#	254672
#	272635
#
# Disc length: 3841 seconds
#
# Revision: 1
# Processed by: cddbd v1.4PL0 Copyright (c) Steve Scherf et al.
# Submitted via: audiograbber 1.81.03
#
DISCID=350eff15
DTITLE=David Allen Coe - Invictus (Means) Unconquered - Tennessee Whiskey
DYEAR=1900
DGENRE=
TTITLE0=Rose Knows
TTITLE1=Ain't It Funny The Way Love Can Do Ya
TTITLE2=If You Ever Think Of Me At All
TTITLE3=The Purple Heart
TTITLE4=London Homesick Blues
TTITLE5=Stand By Your Man
TTITLE6=As Far As This Feeling Will Take Us
TTITLE7=Someplace To Come When It Rains
TTITLE8=The Best Game In Town
TTITLE9=I Love Robbing Banks
TTITLE10=Tennessee Whiskey
TTITLE11=If I Knew
TTITLE12=I've Given 'bout All I Can Take
TTITLE13=Pledging My Love
TTITLE14=I'll Always Be A Fool For You
TTITLE15=Dock Of The Bay
TTITLE16=Juanita
TTITLE17=We Got A Bad Thing Goin'
TTITLE18=D-R-U-N-K
TTITLE19=Little Orphan Annie
TTITLE20=Bright Morning Light
EXTD=
EXTT0=
EXTT1=
EXTT2=
EXTT3=
EXTT4=
EXTT5=
EXTT6=
EXTT7=
EXTT8=
EXTT9=
EXTT10=
EXTT11=
EXTT12=
EXTT13=
EXTT14=
EXTT15=
EXTT16=
EXTT17=
EXTT18=
EXTT19=
EXTT20=
PLAYORDER=
